<?xml version="1.0" encoding="UTF-8" standalone="no"?>
<!-- Generator: Adobe Illustrator 19.0.0, SVG Export Plug-In . SVG Version: 6.00 Build 0)  -->

<svg
   xmlns:dc="http://purl.org/dc/elements/1.1/"
   xmlns:cc="http://creativecommons.org/ns#"
   xmlns:rdf="http://www.w3.org/1999/02/22-rdf-syntax-ns#"
   xmlns:svg="http://www.w3.org/2000/svg"
   xmlns="http://www.w3.org/2000/svg"
   xmlns:sodipodi="http://sodipodi.sourceforge.net/DTD/sodipodi-0.dtd"
   xmlns:inkscape="http://www.inkscape.org/namespaces/inkscape"
   version="1.1"
   id="Layer_1"
   x="0px"
   y="0px"
   viewBox="0 0 551.034 551.034"
   style="enable-background:new 0 0 551.034 551.034;"
   xml:space="preserve"
   sodipodi:docname="close.svg"
   inkscape:version="0.92.4 (5da689c313, 2019-01-14)"><metadata
   id="metadata72"><rdf:RDF><cc:Work
       rdf:about=""><dc:format>image/svg+xml</dc:format><dc:type
         rdf:resource="http://purl.org/dc/dcmitype/StillImage" /></cc:Work></rdf:RDF></metadata><defs
   id="defs70" /><sodipodi:namedview
   pagecolor="#ffffff"
   bordercolor="#666666"
   borderopacity="1"
   objecttolerance="10"
   gridtolerance="10"
   guidetolerance="10"
   inkscape:pageopacity="0"
   inkscape:pageshadow="2"
   inkscape:window-width="2256"
   inkscape:window-height="1425"
   id="namedview68"
   showgrid="false"
   inkscape:zoom="1.5693979"
   inkscape:cx="161.14193"
   inkscape:cy="239.47226"
   inkscape:window-x="-9"
   inkscape:window-y="-9"
   inkscape:window-maximized="1"
   inkscape:current-layer="Layer_1" />

<g
   id="g37"
   style="stroke:#ffffff"
   transform="matrix(1.1362822,0,0,1.1362822,-9.0727166,-66.201045)">
</g>
<g
   id="g39"
   style="stroke:#ffffff"
   transform="matrix(1.1362822,0,0,1.1362822,-9.0727166,-66.201045)">
</g>
<g
   id="g41"
   style="stroke:#ffffff"
   transform="matrix(1.1362822,0,0,1.1362822,-9.0727166,-66.201045)">
</g>
<g
   id="g43"
   style="stroke:#ffffff"
   transform="matrix(1.1362822,0,0,1.1362822,-9.0727166,-66.201045)">
</g>
<g
   id="g45"
   style="stroke:#ffffff"
   transform="matrix(1.1362822,0,0,1.1362822,-9.0727166,-66.201045)">
</g>
<g
   id="g47"
   style="stroke:#ffffff"
   transform="matrix(1.1362822,0,0,1.1362822,-9.0727166,-66.201045)">
</g>
<g
   id="g49"
   style="stroke:#ffffff"
   transform="matrix(1.1362822,0,0,1.1362822,-9.0727166,-66.201045)">
</g>
<g
   id="g51"
   style="stroke:#ffffff"
   transform="matrix(1.1362822,0,0,1.1362822,-9.0727166,-66.201045)">
</g>
<g
   id="g53"
   style="stroke:#ffffff"
   transform="matrix(1.1362822,0,0,1.1362822,-9.0727166,-66.201045)">
</g>
<g
   id="g55"
   style="stroke:#ffffff"
   transform="matrix(1.1362822,0,0,1.1362822,-9.0727166,-66.201045)">
</g>
<g
   id="g57"
   style="stroke:#ffffff"
   transform="matrix(1.1362822,0,0,1.1362822,-9.0727166,-66.201045)">
</g>
<g
   id="g59"
   style="stroke:#ffffff"
   transform="matrix(1.1362822,0,0,1.1362822,-9.0727166,-66.201045)">
</g>
<g
   id="g61"
   style="stroke:#ffffff"
   transform="matrix(1.1362822,0,0,1.1362822,-9.0727166,-66.201045)">
</g>
<g
   id="g63"
   style="stroke:#ffffff"
   transform="matrix(1.1362822,0,0,1.1362822,-9.0727166,-66.201045)">
</g>
<g
   id="g65"
   style="stroke:#ffffff"
   transform="matrix(1.1362822,0,0,1.1362822,-9.0727166,-66.201045)">
</g>
<rect
   style="fill:none;fill-opacity:1;stroke:#ffffff;stroke-width:103.30092621;stroke-linecap:round;stroke-linejoin:round;stroke-miterlimit:4;stroke-dasharray:none;stroke-opacity:1;paint-order:markers fill stroke"
   id="rect845"
   width="609.33734"
   height="9.0254908"
   x="-306.26712"
   y="384.24661"
   transform="rotate(-45)" /><rect
   transform="rotate(-135)"
   y="-6.1111951"
   x="-693.42804"
   height="9.0254908"
   width="609.33734"
   id="rect829"
   style="fill:none;fill-opacity:1;stroke:#ffffff;stroke-width:103.30092621;stroke-linecap:round;stroke-linejoin:round;stroke-miterlimit:4;stroke-dasharray:none;stroke-opacity:1;paint-order:markers fill stroke" /></svg>