<?xml version="1.0" encoding="UTF-8" standalone="no"?>
<!-- Generator: Adobe Illustrator 19.0.0, SVG Export Plug-In . SVG Version: 6.00 Build 0)  -->

<svg
   xmlns:dc="http://purl.org/dc/elements/1.1/"
   xmlns:cc="http://creativecommons.org/ns#"
   xmlns:rdf="http://www.w3.org/1999/02/22-rdf-syntax-ns#"
   xmlns:svg="http://www.w3.org/2000/svg"
   xmlns="http://www.w3.org/2000/svg"
   xmlns:sodipodi="http://sodipodi.sourceforge.net/DTD/sodipodi-0.dtd"
   xmlns:inkscape="http://www.inkscape.org/namespaces/inkscape"
   version="1.1"
   id="Layer_1"
   x="0px"
   y="0px"
   viewBox="0 0 551.034 551.034"
   style="enable-background:new 0 0 551.034 551.034;"
   xml:space="preserve"
   sodipodi:docname="instagram.svg"
   inkscape:version="0.92.4 (5da689c313, 2019-01-14)"><metadata
   id="metadata72"><rdf:RDF><cc:Work
       rdf:about=""><dc:format>image/svg+xml</dc:format><dc:type
         rdf:resource="http://purl.org/dc/dcmitype/StillImage" /></cc:Work></rdf:RDF></metadata><defs
   id="defs70" /><sodipodi:namedview
   pagecolor="#ffffff"
   bordercolor="#666666"
   borderopacity="1"
   objecttolerance="10"
   gridtolerance="10"
   guidetolerance="10"
   inkscape:pageopacity="0"
   inkscape:pageshadow="2"
   inkscape:window-width="2256"
   inkscape:window-height="1425"
   id="namedview68"
   showgrid="false"
   inkscape:zoom="0.42828573"
   inkscape:cx="-119.07939"
   inkscape:cy="251.00066"
   inkscape:window-x="-9"
   inkscape:window-y="-9"
   inkscape:window-maximized="1"
   inkscape:current-layer="Layer_1" />
<g
   id="g35"
   style="fill:#ffffff;fill-opacity:1">
	
		<linearGradient
   id="SVGID_1_"
   gradientUnits="userSpaceOnUse"
   x1="275.517"
   y1="4.57"
   x2="275.517"
   y2="549.72"
   gradientTransform="matrix(1 0 0 -1 0 554)">
		<stop
   offset="0"
   style="stop-color:#E09B3D"
   id="stop2" />
		<stop
   offset="0.3"
   style="stop-color:#C74C4D"
   id="stop4" />
		<stop
   offset="0.6"
   style="stop-color:#C21975"
   id="stop6" />
		<stop
   offset="1"
   style="stop-color:#7024C4"
   id="stop8" />
	</linearGradient>
	<path
   style="fill:#ffffff;fill-opacity:1"
   d="M386.878,0H164.156C73.64,0,0,73.64,0,164.156v222.722   c0,90.516,73.64,164.156,164.156,164.156h222.722c90.516,0,164.156-73.64,164.156-164.156V164.156   C551.033,73.64,477.393,0,386.878,0z M495.6,386.878c0,60.045-48.677,108.722-108.722,108.722H164.156   c-60.045,0-108.722-48.677-108.722-108.722V164.156c0-60.046,48.677-108.722,108.722-108.722h222.722   c60.045,0,108.722,48.676,108.722,108.722L495.6,386.878L495.6,386.878z"
   id="path11" />
	
		<linearGradient
   id="SVGID_2_"
   gradientUnits="userSpaceOnUse"
   x1="275.517"
   y1="4.57"
   x2="275.517"
   y2="549.72"
   gradientTransform="matrix(1 0 0 -1 0 554)">
		<stop
   offset="0"
   style="stop-color:#E09B3D"
   id="stop13" />
		<stop
   offset="0.3"
   style="stop-color:#C74C4D"
   id="stop15" />
		<stop
   offset="0.6"
   style="stop-color:#C21975"
   id="stop17" />
		<stop
   offset="1"
   style="stop-color:#7024C4"
   id="stop19" />
	</linearGradient>
	<path
   style="fill:#ffffff;fill-opacity:1"
   d="M275.517,133C196.933,133,133,196.933,133,275.516s63.933,142.517,142.517,142.517   S418.034,354.1,418.034,275.516S354.101,133,275.517,133z M275.517,362.6c-48.095,0-87.083-38.988-87.083-87.083   s38.989-87.083,87.083-87.083c48.095,0,87.083,38.988,87.083,87.083C362.6,323.611,323.611,362.6,275.517,362.6z"
   id="path22" />
	
		<linearGradient
   id="SVGID_3_"
   gradientUnits="userSpaceOnUse"
   x1="418.31"
   y1="4.57"
   x2="418.31"
   y2="549.72"
   gradientTransform="matrix(1 0 0 -1 0 554)">
		<stop
   offset="0"
   style="stop-color:#E09B3D"
   id="stop24" />
		<stop
   offset="0.3"
   style="stop-color:#C74C4D"
   id="stop26" />
		<stop
   offset="0.6"
   style="stop-color:#C21975"
   id="stop28" />
		<stop
   offset="1"
   style="stop-color:#7024C4"
   id="stop30" />
	</linearGradient>
	<circle
   style="fill:#ffffff;fill-opacity:1"
   cx="418.31"
   cy="134.07"
   r="34.15"
   id="circle33" />
</g>
<g
   id="g37">
</g>
<g
   id="g39">
</g>
<g
   id="g41">
</g>
<g
   id="g43">
</g>
<g
   id="g45">
</g>
<g
   id="g47">
</g>
<g
   id="g49">
</g>
<g
   id="g51">
</g>
<g
   id="g53">
</g>
<g
   id="g55">
</g>
<g
   id="g57">
</g>
<g
   id="g59">
</g>
<g
   id="g61">
</g>
<g
   id="g63">
</g>
<g
   id="g65">
</g>
</svg>